<?xml version="1.0" encoding="UTF-8" standalone="no"?>
<!DOCTYPE svg PUBLIC "-//W3C//DTD SVG 1.1//EN"
 "http://www.w3.org/Graphics/SVG/1.1/DTD/svg11.dtd">
<!-- Generated by graphviz version 3.0.0 (20220413.0242)
 -->
<!-- Pages: 1 -->
<svg width="977pt" height="332pt"
 viewBox="0.00 0.00 977.44 332.00" xmlns="http://www.w3.org/2000/svg" xmlns:xlink="http://www.w3.org/1999/xlink">
<g id="graph0" class="graph" transform="scale(1 1) rotate(0) translate(4 328)">
<polygon fill="white" stroke="transparent" points="-4,4 -4,-328 973.44,-328 973.44,4 -4,4"/>
<!-- [root] aws_eip.ip (expand) -->
<g id="node1" class="node">
<title>[root] aws_eip.ip (expand)</title>
<polygon fill="none" stroke="black" points="702.17,-180 610.17,-180 610.17,-144 702.17,-144 702.17,-180"/>
<text text-anchor="middle" x="656.17" y="-158.3" font-family="Times,serif" font-size="14.00">aws_eip.ip</text>
</g>
<!-- [root] provider[&quot;registry.terraform.io/hashicorp/aws&quot;] -->
<g id="node6" class="node">
<title>[root] provider[&quot;registry.terraform.io/hashicorp/aws&quot;]</title>
<polygon fill="none" stroke="black" points="339.17,-36 -0.17,-18 339.17,0 678.51,-18 339.17,-36"/>
<text text-anchor="middle" x="339.17" y="-14.3" font-family="Times,serif" font-size="14.00">provider[&quot;registry.terraform.io/hashicorp/aws&quot;]</text>
</g>
<!-- [root] aws_eip.ip (expand)&#45;&gt;[root] provider[&quot;registry.terraform.io/hashicorp/aws&quot;] -->
<g id="edge1" class="edge">
<title>[root] aws_eip.ip (expand)&#45;&gt;[root] provider[&quot;registry.terraform.io/hashicorp/aws&quot;]</title>
<path fill="none" stroke="black" d="M669.51,-143.96C683.07,-124.44 699.77,-92.53 682.17,-72 661.42,-47.8 599.22,-34.55 533.38,-27.33"/>
<polygon fill="black" stroke="black" points="533.53,-23.83 523.22,-26.27 532.8,-30.79 533.53,-23.83"/>
</g>
<!-- [root] var.servidores -->
<g id="node9" class="node">
<title>[root] var.servidores</title>
<polygon fill="none" stroke="black" points="667.17,-108 551.17,-108 551.17,-72 673.17,-72 673.17,-102 667.17,-108"/>
<polyline fill="none" stroke="black" points="667.17,-108 667.17,-102 "/>
<polyline fill="none" stroke="black" points="673.17,-102 667.17,-102 "/>
<text text-anchor="middle" x="612.17" y="-86.3" font-family="Times,serif" font-size="14.00">var.servidores</text>
</g>
<!-- [root] aws_eip.ip (expand)&#45;&gt;[root] var.servidores -->
<g id="edge2" class="edge">
<title>[root] aws_eip.ip (expand)&#45;&gt;[root] var.servidores</title>
<path fill="none" stroke="black" d="M645.29,-143.7C640.18,-135.56 633.97,-125.69 628.32,-116.7"/>
<polygon fill="black" stroke="black" points="631.21,-114.71 622.92,-108.1 625.28,-118.43 631.21,-114.71"/>
</g>
<!-- [root] aws_instance.TerraformLT (expand) -->
<g id="node2" class="node">
<title>[root] aws_instance.TerraformLT (expand)</title>
<polygon fill="none" stroke="black" points="492.67,-180 295.67,-180 295.67,-144 492.67,-144 492.67,-180"/>
<text text-anchor="middle" x="394.17" y="-158.3" font-family="Times,serif" font-size="14.00">aws_instance.TerraformLT</text>
</g>
<!-- [root] data.aws_ami.ubuntu (expand) -->
<g id="node3" class="node">
<title>[root] data.aws_ami.ubuntu (expand)</title>
<polygon fill="none" stroke="black" points="215.67,-108 56.67,-108 56.67,-72 215.67,-72 215.67,-108"/>
<text text-anchor="middle" x="136.17" y="-86.3" font-family="Times,serif" font-size="14.00">data.aws_ami.ubuntu</text>
</g>
<!-- [root] aws_instance.TerraformLT (expand)&#45;&gt;[root] data.aws_ami.ubuntu (expand) -->
<g id="edge3" class="edge">
<title>[root] aws_instance.TerraformLT (expand)&#45;&gt;[root] data.aws_ami.ubuntu (expand)</title>
<path fill="none" stroke="black" d="M331.39,-143.97C294.55,-133.97 247.84,-121.3 209.34,-110.85"/>
<polygon fill="black" stroke="black" points="209.8,-107.35 199.23,-108.11 207.97,-114.11 209.8,-107.35"/>
</g>
<!-- [root] data.aws_subnet.subnetaula (expand) -->
<g id="node4" class="node">
<title>[root] data.aws_subnet.subnetaula (expand)</title>
<polygon fill="none" stroke="black" points="445.17,-108 233.17,-108 233.17,-72 445.17,-72 445.17,-108"/>
<text text-anchor="middle" x="339.17" y="-86.3" font-family="Times,serif" font-size="14.00">data.aws_subnet.subnetaula</text>
</g>
<!-- [root] aws_instance.TerraformLT (expand)&#45;&gt;[root] data.aws_subnet.subnetaula (expand) -->
<g id="edge4" class="edge">
<title>[root] aws_instance.TerraformLT (expand)&#45;&gt;[root] data.aws_subnet.subnetaula (expand)</title>
<path fill="none" stroke="black" d="M380.57,-143.7C374.05,-135.39 366.1,-125.28 358.92,-116.14"/>
<polygon fill="black" stroke="black" points="361.54,-113.81 352.61,-108.1 356.03,-118.13 361.54,-113.81"/>
</g>
<!-- [root] var.key -->
<g id="node8" class="node">
<title>[root] var.key</title>
<polygon fill="none" stroke="black" points="526.67,-108 463.67,-108 463.67,-72 532.67,-72 532.67,-102 526.67,-108"/>
<polyline fill="none" stroke="black" points="526.67,-108 526.67,-102 "/>
<polyline fill="none" stroke="black" points="532.67,-102 526.67,-102 "/>
<text text-anchor="middle" x="498.17" y="-86.3" font-family="Times,serif" font-size="14.00">var.key</text>
</g>
<!-- [root] aws_instance.TerraformLT (expand)&#45;&gt;[root] var.key -->
<g id="edge5" class="edge">
<title>[root] aws_instance.TerraformLT (expand)&#45;&gt;[root] var.key</title>
<path fill="none" stroke="black" d="M419.61,-143.88C432.96,-134.89 449.49,-123.76 463.95,-114.03"/>
<polygon fill="black" stroke="black" points="466.29,-116.68 472.63,-108.19 462.38,-110.87 466.29,-116.68"/>
</g>
<!-- [root] aws_instance.TerraformLT (expand)&#45;&gt;[root] var.servidores -->
<g id="edge6" class="edge">
<title>[root] aws_instance.TerraformLT (expand)&#45;&gt;[root] var.servidores</title>
<path fill="none" stroke="black" d="M447.22,-143.97C477.94,-134.1 516.8,-121.62 549.09,-111.25"/>
<polygon fill="black" stroke="black" points="550.43,-114.5 558.88,-108.11 548.29,-107.84 550.43,-114.5"/>
</g>
<!-- [root] data.aws_ami.ubuntu (expand)&#45;&gt;[root] provider[&quot;registry.terraform.io/hashicorp/aws&quot;] -->
<g id="edge7" class="edge">
<title>[root] data.aws_ami.ubuntu (expand)&#45;&gt;[root] provider[&quot;registry.terraform.io/hashicorp/aws&quot;]</title>
<path fill="none" stroke="black" d="M185.57,-71.97C216.17,-61.41 255.45,-47.87 286.62,-37.12"/>
<polygon fill="black" stroke="black" points="288.13,-40.3 296.44,-33.73 285.84,-33.69 288.13,-40.3"/>
</g>
<!-- [root] data.aws_subnet.subnetaula (expand)&#45;&gt;[root] provider[&quot;registry.terraform.io/hashicorp/aws&quot;] -->
<g id="edge8" class="edge">
<title>[root] data.aws_subnet.subnetaula (expand)&#45;&gt;[root] provider[&quot;registry.terraform.io/hashicorp/aws&quot;]</title>
<path fill="none" stroke="black" d="M339.17,-71.7C339.17,-63.98 339.17,-54.71 339.17,-46.11"/>
<polygon fill="black" stroke="black" points="342.67,-46.1 339.17,-36.1 335.67,-46.1 342.67,-46.1"/>
</g>
<!-- [root] output.ids -->
<g id="node5" class="node">
<title>[root] output.ids</title>
<polygon fill="none" stroke="black" points="193.17,-252 107.17,-252 107.17,-216 199.17,-216 199.17,-246 193.17,-252"/>
<polyline fill="none" stroke="black" points="193.17,-252 193.17,-246 "/>
<polyline fill="none" stroke="black" points="199.17,-246 193.17,-246 "/>
<text text-anchor="middle" x="153.17" y="-230.3" font-family="Times,serif" font-size="14.00">output.ids</text>
</g>
<!-- [root] output.ids&#45;&gt;[root] aws_instance.TerraformLT (expand) -->
<g id="edge9" class="edge">
<title>[root] output.ids&#45;&gt;[root] aws_instance.TerraformLT (expand)</title>
<path fill="none" stroke="black" d="M199.36,-218.64C202.34,-217.74 205.29,-216.85 208.17,-216 245.96,-204.78 288.21,-192.7 322.88,-182.91"/>
<polygon fill="black" stroke="black" points="324.24,-186.17 332.92,-180.09 322.34,-179.43 324.24,-186.17"/>
</g>
<!-- [root] var.image_id -->
<g id="node7" class="node">
<title>[root] var.image_id</title>
<polygon fill="none" stroke="black" points="318.67,-252 217.67,-252 217.67,-216 324.67,-216 324.67,-246 318.67,-252"/>
<polyline fill="none" stroke="black" points="318.67,-252 318.67,-246 "/>
<polyline fill="none" stroke="black" points="324.67,-246 318.67,-246 "/>
<text text-anchor="middle" x="271.17" y="-230.3" font-family="Times,serif" font-size="14.00">var.image_id</text>
</g>
<!-- [root] provider[&quot;registry.terraform.io/hashicorp/aws&quot;] (close) -->
<g id="node10" class="node">
<title>[root] provider[&quot;registry.terraform.io/hashicorp/aws&quot;] (close)</title>
<ellipse fill="none" stroke="black" cx="656.17" cy="-234" rx="313.04" ry="18"/>
<text text-anchor="middle" x="656.17" y="-230.3" font-family="Times,serif" font-size="14.00">[root] provider[&quot;registry.terraform.io/hashicorp/aws&quot;] (close)</text>
</g>
<!-- [root] provider[&quot;registry.terraform.io/hashicorp/aws&quot;] (close)&#45;&gt;[root] aws_eip.ip (expand) -->
<g id="edge10" class="edge">
<title>[root] provider[&quot;registry.terraform.io/hashicorp/aws&quot;] (close)&#45;&gt;[root] aws_eip.ip (expand)</title>
<path fill="none" stroke="black" d="M656.17,-215.7C656.17,-207.98 656.17,-198.71 656.17,-190.11"/>
<polygon fill="black" stroke="black" points="659.67,-190.1 656.17,-180.1 652.67,-190.1 659.67,-190.1"/>
</g>
<!-- [root] provider[&quot;registry.terraform.io/hashicorp/aws&quot;] (close)&#45;&gt;[root] aws_instance.TerraformLT (expand) -->
<g id="edge11" class="edge">
<title>[root] provider[&quot;registry.terraform.io/hashicorp/aws&quot;] (close)&#45;&gt;[root] aws_instance.TerraformLT (expand)</title>
<path fill="none" stroke="black" d="M593.75,-216.32C555.93,-206.22 507.5,-193.28 467.82,-182.68"/>
<polygon fill="black" stroke="black" points="468.5,-179.24 457.93,-180.04 466.69,-186 468.5,-179.24"/>
</g>
<!-- [root] root -->
<g id="node11" class="node">
<title>[root] root</title>
<ellipse fill="none" stroke="black" cx="271.17" cy="-306" rx="64.19" ry="18"/>
<text text-anchor="middle" x="271.17" y="-302.3" font-family="Times,serif" font-size="14.00">[root] root</text>
</g>
<!-- [root] root&#45;&gt;[root] output.ids -->
<g id="edge12" class="edge">
<title>[root] root&#45;&gt;[root] output.ids</title>
<path fill="none" stroke="black" d="M244.98,-289.46C229.14,-280.07 208.67,-267.92 191.08,-257.49"/>
<polygon fill="black" stroke="black" points="192.57,-254.3 182.18,-252.21 189,-260.32 192.57,-254.3"/>
</g>
<!-- [root] root&#45;&gt;[root] var.image_id -->
<g id="edge14" class="edge">
<title>[root] root&#45;&gt;[root] var.image_id</title>
<path fill="none" stroke="black" d="M271.17,-287.7C271.17,-279.98 271.17,-270.71 271.17,-262.11"/>
<polygon fill="black" stroke="black" points="274.67,-262.1 271.17,-252.1 267.67,-262.1 274.67,-262.1"/>
</g>
<!-- [root] root&#45;&gt;[root] provider[&quot;registry.terraform.io/hashicorp/aws&quot;] (close) -->
<g id="edge13" class="edge">
<title>[root] root&#45;&gt;[root] provider[&quot;registry.terraform.io/hashicorp/aws&quot;] (close)</title>
<path fill="none" stroke="black" d="M323.49,-295.49C383.21,-284.63 482.24,-266.62 556.76,-253.08"/>
<polygon fill="black" stroke="black" points="557.43,-256.51 566.64,-251.28 556.17,-249.62 557.43,-256.51"/>
</g>
</g>
</svg>
