<?xml version="1.0" encoding="UTF-8" standalone="no"?>
<!DOCTYPE svg PUBLIC "-//W3C//DTD SVG 1.1//EN"
 "http://www.w3.org/Graphics/SVG/1.1/DTD/svg11.dtd">
<!-- Generated by graphviz version 3.0.0 (20220413.0242)
 -->
<!-- Pages: 1 -->
<svg width="1349pt" height="332pt"
 viewBox="0.00 0.00 1348.77 332.00" xmlns="http://www.w3.org/2000/svg" xmlns:xlink="http://www.w3.org/1999/xlink">
<g id="graph0" class="graph" transform="scale(1 1) rotate(0) translate(4 328)">
<polygon fill="white" stroke="transparent" points="-4,4 -4,-328 1344.77,-328 1344.77,4 -4,4"/>
<!-- [root] aws_eip.ip&#45;publico (expand) -->
<g id="node1" class="node">
<title>[root] aws_eip.ip&#45;publico (expand)</title>
<polygon fill="none" stroke="black" points="1103.5,-180 951.5,-180 951.5,-144 1103.5,-144 1103.5,-180"/>
<text text-anchor="middle" x="1027.5" y="-158.3" font-family="Times,serif" font-size="14.00">aws_eip.ip&#45;publico</text>
</g>
<!-- [root] provider[&quot;registry.terraform.io/hashicorp/aws&quot;] -->
<g id="node7" class="node">
<title>[root] provider[&quot;registry.terraform.io/hashicorp/aws&quot;]</title>
<polygon fill="none" stroke="black" points="417.5,-36 78.16,-18 417.5,0 756.84,-18 417.5,-36"/>
<text text-anchor="middle" x="417.5" y="-14.3" font-family="Times,serif" font-size="14.00">provider[&quot;registry.terraform.io/hashicorp/aws&quot;]</text>
</g>
<!-- [root] aws_eip.ip&#45;publico (expand)&#45;&gt;[root] provider[&quot;registry.terraform.io/hashicorp/aws&quot;] -->
<g id="edge1" class="edge">
<title>[root] aws_eip.ip&#45;publico (expand)&#45;&gt;[root] provider[&quot;registry.terraform.io/hashicorp/aws&quot;]</title>
<path fill="none" stroke="black" d="M1020.7,-143.82C1011.42,-122.9 992.66,-88.34 964.5,-72 914.68,-43.1 790.19,-29.67 672.54,-23.55"/>
<polygon fill="black" stroke="black" points="672.44,-20.04 662.28,-23.03 672.09,-27.03 672.44,-20.04"/>
</g>
<!-- [root] var.servidores -->
<g id="node13" class="node">
<title>[root] var.servidores</title>
<polygon fill="none" stroke="black" points="1127.5,-108 1011.5,-108 1011.5,-72 1133.5,-72 1133.5,-102 1127.5,-108"/>
<polyline fill="none" stroke="black" points="1127.5,-108 1127.5,-102 "/>
<polyline fill="none" stroke="black" points="1133.5,-102 1127.5,-102 "/>
<text text-anchor="middle" x="1072.5" y="-86.3" font-family="Times,serif" font-size="14.00">var.servidores</text>
</g>
<!-- [root] aws_eip.ip&#45;publico (expand)&#45;&gt;[root] var.servidores -->
<g id="edge2" class="edge">
<title>[root] aws_eip.ip&#45;publico (expand)&#45;&gt;[root] var.servidores</title>
<path fill="none" stroke="black" d="M1038.62,-143.7C1043.86,-135.56 1050.2,-125.69 1055.98,-116.7"/>
<polygon fill="black" stroke="black" points="1059.04,-118.41 1061.5,-108.1 1053.15,-114.62 1059.04,-118.41"/>
</g>
<!-- [root] aws_instance.TerraformLT (expand) -->
<g id="node2" class="node">
<title>[root] aws_instance.TerraformLT (expand)</title>
<polygon fill="none" stroke="black" points="712,-180 515,-180 515,-144 712,-144 712,-180"/>
<text text-anchor="middle" x="613.5" y="-158.3" font-family="Times,serif" font-size="14.00">aws_instance.TerraformLT</text>
</g>
<!-- [root] aws_security_group.terrassh (expand) -->
<g id="node3" class="node">
<title>[root] aws_security_group.terrassh (expand)</title>
<polygon fill="none" stroke="black" points="219,-108 0,-108 0,-72 219,-72 219,-108"/>
<text text-anchor="middle" x="109.5" y="-86.3" font-family="Times,serif" font-size="14.00">aws_security_group.terrassh</text>
</g>
<!-- [root] aws_instance.TerraformLT (expand)&#45;&gt;[root] aws_security_group.terrassh (expand) -->
<g id="edge3" class="edge">
<title>[root] aws_instance.TerraformLT (expand)&#45;&gt;[root] aws_security_group.terrassh (expand)</title>
<path fill="none" stroke="black" d="M514.71,-147.62C439.15,-137.34 332.07,-122.68 229.06,-108.21"/>
<polygon fill="black" stroke="black" points="229.49,-104.74 219.1,-106.82 228.52,-111.67 229.49,-104.74"/>
</g>
<!-- [root] data.aws_ami.ubuntu (expand) -->
<g id="node4" class="node">
<title>[root] data.aws_ami.ubuntu (expand)</title>
<polygon fill="none" stroke="black" points="396,-108 237,-108 237,-72 396,-72 396,-108"/>
<text text-anchor="middle" x="316.5" y="-86.3" font-family="Times,serif" font-size="14.00">data.aws_ami.ubuntu</text>
</g>
<!-- [root] aws_instance.TerraformLT (expand)&#45;&gt;[root] data.aws_ami.ubuntu (expand) -->
<g id="edge4" class="edge">
<title>[root] aws_instance.TerraformLT (expand)&#45;&gt;[root] data.aws_ami.ubuntu (expand)</title>
<path fill="none" stroke="black" d="M541.23,-143.97C498.2,-133.83 443.47,-120.93 398.8,-110.4"/>
<polygon fill="black" stroke="black" points="399.38,-106.94 388.84,-108.05 397.77,-113.75 399.38,-106.94"/>
</g>
<!-- [root] data.aws_subnet.subnetaula (expand) -->
<g id="node5" class="node">
<title>[root] data.aws_subnet.subnetaula (expand)</title>
<polygon fill="none" stroke="black" points="625.5,-108 413.5,-108 413.5,-72 625.5,-72 625.5,-108"/>
<text text-anchor="middle" x="519.5" y="-86.3" font-family="Times,serif" font-size="14.00">data.aws_subnet.subnetaula</text>
</g>
<!-- [root] aws_instance.TerraformLT (expand)&#45;&gt;[root] data.aws_subnet.subnetaula (expand) -->
<g id="edge5" class="edge">
<title>[root] aws_instance.TerraformLT (expand)&#45;&gt;[root] data.aws_subnet.subnetaula (expand)</title>
<path fill="none" stroke="black" d="M590.26,-143.7C578.31,-134.8 563.58,-123.82 550.65,-114.2"/>
<polygon fill="black" stroke="black" points="552.58,-111.27 542.47,-108.1 548.4,-116.88 552.58,-111.27"/>
</g>
<!-- [root] var.environment -->
<g id="node8" class="node">
<title>[root] var.environment</title>
<polygon fill="none" stroke="black" points="767,-108 644,-108 644,-72 773,-72 773,-102 767,-108"/>
<polyline fill="none" stroke="black" points="767,-108 767,-102 "/>
<polyline fill="none" stroke="black" points="773,-102 767,-102 "/>
<text text-anchor="middle" x="708.5" y="-86.3" font-family="Times,serif" font-size="14.00">var.environment</text>
</g>
<!-- [root] aws_instance.TerraformLT (expand)&#45;&gt;[root] var.environment -->
<g id="edge6" class="edge">
<title>[root] aws_instance.TerraformLT (expand)&#45;&gt;[root] var.environment</title>
<path fill="none" stroke="black" d="M636.98,-143.7C649.06,-134.8 663.95,-123.82 677.02,-114.2"/>
<polygon fill="black" stroke="black" points="679.31,-116.85 685.29,-108.1 675.16,-111.22 679.31,-116.85"/>
</g>
<!-- [root] var.key -->
<g id="node10" class="node">
<title>[root] var.key</title>
<polygon fill="none" stroke="black" points="854,-108 791,-108 791,-72 860,-72 860,-102 854,-108"/>
<polyline fill="none" stroke="black" points="854,-108 854,-102 "/>
<polyline fill="none" stroke="black" points="860,-102 854,-102 "/>
<text text-anchor="middle" x="825.5" y="-86.3" font-family="Times,serif" font-size="14.00">var.key</text>
</g>
<!-- [root] aws_instance.TerraformLT (expand)&#45;&gt;[root] var.key -->
<g id="edge7" class="edge">
<title>[root] aws_instance.TerraformLT (expand)&#45;&gt;[root] var.key</title>
<path fill="none" stroke="black" d="M670.56,-143.98C703.21,-133.99 744.85,-120.85 781.5,-108 781.6,-107.97 781.69,-107.93 781.79,-107.9"/>
<polygon fill="black" stroke="black" points="782.78,-111.26 790.99,-104.57 780.39,-104.68 782.78,-111.26"/>
</g>
<!-- [root] var.plus -->
<g id="node12" class="node">
<title>[root] var.plus</title>
<polygon fill="none" stroke="black" points="949,-108 878,-108 878,-72 955,-72 955,-102 949,-108"/>
<polyline fill="none" stroke="black" points="949,-108 949,-102 "/>
<polyline fill="none" stroke="black" points="955,-102 949,-102 "/>
<text text-anchor="middle" x="916.5" y="-86.3" font-family="Times,serif" font-size="14.00">var.plus</text>
</g>
<!-- [root] aws_instance.TerraformLT (expand)&#45;&gt;[root] var.plus -->
<g id="edge8" class="edge">
<title>[root] aws_instance.TerraformLT (expand)&#45;&gt;[root] var.plus</title>
<path fill="none" stroke="black" d="M712.15,-143.99C757.42,-135.37 811.85,-123.85 868.13,-108.21"/>
<polygon fill="black" stroke="black" points="869.24,-111.53 877.91,-105.45 867.34,-104.8 869.24,-111.53"/>
</g>
<!-- [root] aws_security_group.terrassh (expand)&#45;&gt;[root] provider[&quot;registry.terraform.io/hashicorp/aws&quot;] -->
<g id="edge9" class="edge">
<title>[root] aws_security_group.terrassh (expand)&#45;&gt;[root] provider[&quot;registry.terraform.io/hashicorp/aws&quot;]</title>
<path fill="none" stroke="black" d="M184.45,-71.97C233.93,-60.72 298.34,-46.08 346.9,-35.04"/>
<polygon fill="black" stroke="black" points="347.73,-38.45 356.71,-32.82 346.18,-31.62 347.73,-38.45"/>
</g>
<!-- [root] data.aws_ami.ubuntu (expand)&#45;&gt;[root] provider[&quot;registry.terraform.io/hashicorp/aws&quot;] -->
<g id="edge10" class="edge">
<title>[root] data.aws_ami.ubuntu (expand)&#45;&gt;[root] provider[&quot;registry.terraform.io/hashicorp/aws&quot;]</title>
<path fill="none" stroke="black" d="M341.21,-71.88C354.65,-62.56 371.43,-50.93 385.83,-40.95"/>
<polygon fill="black" stroke="black" points="388.21,-43.56 394.43,-34.99 384.22,-37.81 388.21,-43.56"/>
</g>
<!-- [root] data.aws_subnet.subnetaula (expand)&#45;&gt;[root] provider[&quot;registry.terraform.io/hashicorp/aws&quot;] -->
<g id="edge11" class="edge">
<title>[root] data.aws_subnet.subnetaula (expand)&#45;&gt;[root] provider[&quot;registry.terraform.io/hashicorp/aws&quot;]</title>
<path fill="none" stroke="black" d="M494.55,-71.88C480.84,-62.47 463.7,-50.71 449.08,-40.67"/>
<polygon fill="black" stroke="black" points="451.02,-37.76 440.8,-34.99 447.06,-43.53 451.02,-37.76"/>
</g>
<!-- [root] output.ip_address -->
<g id="node6" class="node">
<title>[root] output.ip_address</title>
<polygon fill="none" stroke="black" points="344.5,-252 206.5,-252 206.5,-216 350.5,-216 350.5,-246 344.5,-252"/>
<polyline fill="none" stroke="black" points="344.5,-252 344.5,-246 "/>
<polyline fill="none" stroke="black" points="350.5,-246 344.5,-246 "/>
<text text-anchor="middle" x="278.5" y="-230.3" font-family="Times,serif" font-size="14.00">output.ip_address</text>
</g>
<!-- [root] output.ip_address&#45;&gt;[root] aws_instance.TerraformLT (expand) -->
<g id="edge12" class="edge">
<title>[root] output.ip_address&#45;&gt;[root] aws_instance.TerraformLT (expand)</title>
<path fill="none" stroke="black" d="M350.92,-217.8C353.82,-217.19 356.69,-216.59 359.5,-216 413.33,-204.73 473.59,-192.16 521.9,-182.09"/>
<polygon fill="black" stroke="black" points="522.63,-185.51 531.71,-180.04 521.2,-178.66 522.63,-185.51"/>
</g>
<!-- [root] var.image_id -->
<g id="node9" class="node">
<title>[root] var.image_id</title>
<polygon fill="none" stroke="black" points="470,-252 369,-252 369,-216 476,-216 476,-246 470,-252"/>
<polyline fill="none" stroke="black" points="470,-252 470,-246 "/>
<polyline fill="none" stroke="black" points="476,-246 470,-246 "/>
<text text-anchor="middle" x="422.5" y="-230.3" font-family="Times,serif" font-size="14.00">var.image_id</text>
</g>
<!-- [root] var.name -->
<g id="node11" class="node">
<title>[root] var.name</title>
<polygon fill="none" stroke="black" points="565,-252 494,-252 494,-216 571,-216 571,-246 565,-252"/>
<polyline fill="none" stroke="black" points="565,-252 565,-246 "/>
<polyline fill="none" stroke="black" points="571,-246 565,-246 "/>
<text text-anchor="middle" x="532.5" y="-230.3" font-family="Times,serif" font-size="14.00">var.name</text>
</g>
<!-- [root] var.terrassh -->
<g id="node14" class="node">
<title>[root] var.terrassh</title>
<polygon fill="none" stroke="black" points="690,-252 589,-252 589,-216 696,-216 696,-246 690,-252"/>
<polyline fill="none" stroke="black" points="690,-252 690,-246 "/>
<polyline fill="none" stroke="black" points="696,-246 690,-246 "/>
<text text-anchor="middle" x="642.5" y="-230.3" font-family="Times,serif" font-size="14.00">var.terrassh</text>
</g>
<!-- [root] provider[&quot;registry.terraform.io/hashicorp/aws&quot;] (close) -->
<g id="node15" class="node">
<title>[root] provider[&quot;registry.terraform.io/hashicorp/aws&quot;] (close)</title>
<ellipse fill="none" stroke="black" cx="1027.5" cy="-234" rx="313.04" ry="18"/>
<text text-anchor="middle" x="1027.5" y="-230.3" font-family="Times,serif" font-size="14.00">[root] provider[&quot;registry.terraform.io/hashicorp/aws&quot;] (close)</text>
</g>
<!-- [root] provider[&quot;registry.terraform.io/hashicorp/aws&quot;] (close)&#45;&gt;[root] aws_eip.ip&#45;publico (expand) -->
<g id="edge13" class="edge">
<title>[root] provider[&quot;registry.terraform.io/hashicorp/aws&quot;] (close)&#45;&gt;[root] aws_eip.ip&#45;publico (expand)</title>
<path fill="none" stroke="black" d="M1027.5,-215.7C1027.5,-207.98 1027.5,-198.71 1027.5,-190.11"/>
<polygon fill="black" stroke="black" points="1031,-190.1 1027.5,-180.1 1024,-190.1 1031,-190.1"/>
</g>
<!-- [root] provider[&quot;registry.terraform.io/hashicorp/aws&quot;] (close)&#45;&gt;[root] aws_instance.TerraformLT (expand) -->
<g id="edge14" class="edge">
<title>[root] provider[&quot;registry.terraform.io/hashicorp/aws&quot;] (close)&#45;&gt;[root] aws_instance.TerraformLT (expand)</title>
<path fill="none" stroke="black" d="M932,-216.85C869.31,-206.25 787.17,-192.37 722.01,-181.35"/>
<polygon fill="black" stroke="black" points="722.56,-177.89 712.12,-179.67 721.39,-184.79 722.56,-177.89"/>
</g>
<!-- [root] root -->
<g id="node16" class="node">
<title>[root] root</title>
<ellipse fill="none" stroke="black" cx="532.5" cy="-306" rx="64.19" ry="18"/>
<text text-anchor="middle" x="532.5" y="-302.3" font-family="Times,serif" font-size="14.00">[root] root</text>
</g>
<!-- [root] root&#45;&gt;[root] output.ip_address -->
<g id="edge15" class="edge">
<title>[root] root&#45;&gt;[root] output.ip_address</title>
<path fill="none" stroke="black" d="M488.26,-292.81C450.2,-282.32 394.58,-266.99 350.18,-254.75"/>
<polygon fill="black" stroke="black" points="350.88,-251.32 340.31,-252.03 349.02,-258.07 350.88,-251.32"/>
</g>
<!-- [root] root&#45;&gt;[root] var.image_id -->
<g id="edge17" class="edge">
<title>[root] root&#45;&gt;[root] var.image_id</title>
<path fill="none" stroke="black" d="M507.81,-289.29C493.17,-279.97 474.36,-268 458.12,-257.67"/>
<polygon fill="black" stroke="black" points="459.73,-254.54 449.41,-252.13 455.97,-260.45 459.73,-254.54"/>
</g>
<!-- [root] root&#45;&gt;[root] var.name -->
<g id="edge18" class="edge">
<title>[root] root&#45;&gt;[root] var.name</title>
<path fill="none" stroke="black" d="M532.5,-287.7C532.5,-279.98 532.5,-270.71 532.5,-262.11"/>
<polygon fill="black" stroke="black" points="536,-262.1 532.5,-252.1 529,-262.1 536,-262.1"/>
</g>
<!-- [root] root&#45;&gt;[root] var.terrassh -->
<g id="edge19" class="edge">
<title>[root] root&#45;&gt;[root] var.terrassh</title>
<path fill="none" stroke="black" d="M557.19,-289.29C571.83,-279.97 590.64,-268 606.88,-257.67"/>
<polygon fill="black" stroke="black" points="609.03,-260.45 615.59,-252.13 605.27,-254.54 609.03,-260.45"/>
</g>
<!-- [root] root&#45;&gt;[root] provider[&quot;registry.terraform.io/hashicorp/aws&quot;] (close) -->
<g id="edge16" class="edge">
<title>[root] root&#45;&gt;[root] provider[&quot;registry.terraform.io/hashicorp/aws&quot;] (close)</title>
<path fill="none" stroke="black" d="M588.8,-297.04C665.44,-286.2 804.6,-266.52 905.69,-252.23"/>
<polygon fill="black" stroke="black" points="906.24,-255.68 915.66,-250.82 905.26,-248.75 906.24,-255.68"/>
</g>
</g>
</svg>
